<mxfile host="app.diagrams.net" modified="2021-12-07T16:52:02.711Z" agent="5.0 (X11; Linux x86_64) AppleWebKit/537.36 (KHTML, like Gecko) Chrome/96.0.4664.93 Safari/537.36" etag="9DhPPOTX8GspK31ZHlgQ" version="15.9.1" type="github">
  <diagram name="Page-1" id="55a83fd1-7818-8e21-69c5-c3457e3827bb">
    <mxGraphModel dx="1298" dy="886" grid="1" gridSize="10" guides="1" tooltips="1" connect="1" arrows="1" fold="1" page="1" pageScale="1" pageWidth="1100" pageHeight="850" background="none" math="0" shadow="0">
      <root>
        <mxCell id="0" />
        <mxCell id="1" parent="0" />
        <mxCell id="69ecfefc5c41e42c-19" style="edgeStyle=none;rounded=0;html=1;labelBackgroundColor=none;endArrow=none;strokeWidth=2;fontFamily=Verdana;fontSize=22;exitX=1;exitY=0.75;exitDx=0;exitDy=0;" parent="1" edge="1">
          <mxGeometry relative="1" as="geometry">
            <mxPoint x="590" y="275.25" as="sourcePoint" />
            <mxPoint x="750" y="275.25" as="targetPoint" />
          </mxGeometry>
        </mxCell>
        <mxCell id="LsXxGpK4nr32SsooJ6Ow-11" style="edgeStyle=none;rounded=0;html=1;labelBackgroundColor=none;endArrow=none;strokeWidth=2;fontFamily=Verdana;fontSize=22;entryX=0;entryY=0.75;entryDx=0;entryDy=0;" edge="1" parent="1">
          <mxGeometry relative="1" as="geometry">
            <mxPoint x="350" y="275.25" as="sourcePoint" />
            <mxPoint x="510" y="274.75" as="targetPoint" />
          </mxGeometry>
        </mxCell>
        <mxCell id="LsXxGpK4nr32SsooJ6Ow-12" value="Wi-Fi Router&lt;br&gt;(dhcp mac ip binding)&lt;br&gt;&lt;br&gt;" style="text;html=1;align=center;verticalAlign=middle;resizable=0;points=[];autosize=1;strokeColor=none;fillColor=none;fontSize=22;" vertex="1" parent="1">
          <mxGeometry x="450.25" y="345.25" width="230" height="80" as="geometry" />
        </mxCell>
        <mxCell id="LsXxGpK4nr32SsooJ6Ow-13" value="&lt;font style=&quot;font-size: 15px&quot;&gt;LAN 192.168.100.1/24&lt;/font&gt;" style="text;html=1;align=center;verticalAlign=middle;resizable=0;points=[];autosize=1;strokeColor=none;fillColor=none;fontSize=22;" vertex="1" parent="1">
          <mxGeometry x="364" y="215.25" width="170" height="30" as="geometry" />
        </mxCell>
        <mxCell id="LsXxGpK4nr32SsooJ6Ow-14" value="&lt;font style=&quot;font-size: 15px&quot;&gt;WAN&amp;nbsp;178.45.ххх.ххх/24&lt;br&gt;&lt;/font&gt;" style="text;html=1;align=center;verticalAlign=middle;resizable=0;points=[];autosize=1;strokeColor=none;fillColor=none;fontSize=22;" vertex="1" parent="1">
          <mxGeometry x="570" y="305.25" width="170" height="30" as="geometry" />
        </mxCell>
        <mxCell id="LsXxGpK4nr32SsooJ6Ow-22" value="&lt;span&gt;Схема L3 домашней сети&lt;br&gt;&lt;/span&gt;" style="text;html=1;align=center;verticalAlign=middle;resizable=0;points=[];autosize=1;strokeColor=none;fillColor=none;fontSize=15;" vertex="1" parent="1">
          <mxGeometry x="470.25" y="50" width="190" height="20" as="geometry" />
        </mxCell>
        <mxCell id="LsXxGpK4nr32SsooJ6Ow-23" value="" style="image;html=1;image=img/lib/clip_art/networking/Router_Icon_128x128.png;fontSize=15;" vertex="1" parent="1">
          <mxGeometry x="510" y="235.25" width="80" height="80" as="geometry" />
        </mxCell>
        <mxCell id="LsXxGpK4nr32SsooJ6Ow-24" value="" style="html=1;verticalLabelPosition=bottom;align=center;labelBackgroundColor=#ffffff;verticalAlign=top;strokeWidth=2;strokeColor=#0080F0;shadow=0;dashed=0;shape=mxgraph.ios7.icons.home;fontSize=15;" vertex="1" parent="1">
          <mxGeometry x="210" y="205" width="154" height="120.5" as="geometry" />
        </mxCell>
        <mxCell id="LsXxGpK4nr32SsooJ6Ow-25" value="" style="aspect=fixed;perimeter=ellipsePerimeter;html=1;align=center;shadow=0;dashed=0;spacingTop=3;image;image=img/lib/active_directory/firewall.svg;fontSize=15;" vertex="1" parent="1">
          <mxGeometry x="550" y="265.25" width="30.5" height="50" as="geometry" />
        </mxCell>
        <mxCell id="LsXxGpK4nr32SsooJ6Ow-26" value="&lt;font style=&quot;font-size: 22px&quot;&gt;Internet&lt;/font&gt;" style="aspect=fixed;perimeter=ellipsePerimeter;html=1;align=center;shadow=0;dashed=0;spacingTop=3;image;image=img/lib/active_directory/internet_cloud.svg;fontSize=15;" vertex="1" parent="1">
          <mxGeometry x="750" y="215.25" width="144.44" height="91" as="geometry" />
        </mxCell>
      </root>
    </mxGraphModel>
  </diagram>
</mxfile>
